<svg xmlns="http://www.w3.org/2000/svg" viewBox="0 0 64 64">
  <defs>
    <linearGradient id="bg" x1="0" y1="0" x2="1" y2="1">
      <stop offset="0%" stop-color="#00d8ff"/>
      <stop offset="100%" stop-color="#0088dd"/>
    </linearGradient>
  </defs>
  <rect width="64" height="64" rx="13.5" fill="url(#bg)"/>
  <path d="M13 23 a7 7 0 0 1 7-7 h20 a7 7 0 0 1 7 7 v14 a7 7 0 0 1-7 7 H25 l-5 8 v-8 H20 a7 7 0 0 1-7-7z" fill="#fff" opacity=".94"/>
  <path d="M19 24 c-2-4-8-3.5-7.5 1 .5 3.5 4.5 4.5 6 2.5" stroke="#00b0e0" stroke-width="2.2" stroke-linecap="round" fill="none"/>
  <path d="M41 24 c2-4 8-3.5 7.5 1-.5 3.5-4.5 4.5-6 2.5" stroke="#00b0e0" stroke-width="2.2" stroke-linecap="round" fill="none"/>
  <circle cx="26" cy="27" r="1.4" fill="#00b0e0"/>
  <circle cx="34" cy="27" r="1.4" fill="#00b0e0"/>
  <circle cx="30" cy="31" r="2" fill="#00b0e0"/>
  <circle cx="50" cy="12" r="3.5" fill="#fff" opacity=".7"/>
  <circle cx="56" cy="20" r="2" fill="#fff" opacity=".5"/>
  <circle cx="54" cy="7" r="1.5" fill="#fff" opacity=".4"/>
  <circle cx="46" cy="7" r="1.2" fill="#fff" opacity=".35"/>
</svg>
